<?xml version="1.0" encoding="UTF-8"?>
<svg id="Layer_1" data-name="Layer 1" xmlns="http://www.w3.org/2000/svg" xmlns:xlink="http://www.w3.org/1999/xlink" viewBox="0 0 2000 2000">
  <defs>
    <style>
      .cls-1 {
        fill: none;
      }

      .cls-2 {
        fill: #868586;
      }

      .cls-3 {
        fill: #3d1152;
      }

      .cls-4 {
        fill: #fff;
      }

      .cls-5 {
        clip-path: url(#clippath);
      }
    </style>
    <clipPath id="clippath">
      <path class="cls-1" d="M-959.02,1143.4l93.33,293.88,215.27-215.29v-375.07l-180.11-180.15-128.48,476.64ZM-1556.03,846.91v375.07l216.91,216.92,81.16-251.19,11.15-34.53-124.77-490.76-184.46,184.48ZM-793.36,528.85l263.84,263.88c1.85,1.86,2.89,4.37,2.89,6.98v469.46c0,2.61-1.04,5.12-2.89,6.98l-293.97,294,17.41,54.79c234.3-110.64,396.88-349.11,396.88-624.95,0-256.78-140.86-481.24-349.35-600.28l-34.81,129.14ZM-1790.79,1000c0,274.02,160.45,511.17,392.28,622.75l16.63-51.5-295.05-295.09c-1.85-1.85-2.89-4.37-2.89-6.98v-469.46c0-2.62,1.04-5.12,2.89-6.98l269.86-269.9-.85-3.34,5.08-16.79s0-.01,0-.02l11.77-38.81,31.49-103.95c-252.63,102.83-431.22,350.95-431.22,640.08"/>
    </clipPath>
  </defs>
  <g class="cls-5">
    <path class="cls-2" d="M115.4,144.44H46.19c-.26,0-.5.17-.58.42l-5.82,18.02c-.13.4.17.81.58.81h80.75c.42,0,.71-.4.58-.81l-5.72-18.02c-.08-.26-.32-.42-.58-.42M76.64,50.02l.89-5.82,16.86-110.12c.07-.45-.34-.81-.77-.68l-42.29,11.89c-.31.08-.5.41-.42.73l23.19,98.31,1.34,5.74c.15.65,1.11.61,1.2-.06M41.56-46.71l-4.49,14.82c-.03.1-.03.22,0,.33l28.86,113.52-16.91,52.33c-.13.4.17.8.58.8h62.43c.42,0,.71-.4.58-.79l-17.21-54.19,34.78-129.03c.07-.25-.03-.53-.26-.68l-24.2-15.46c-.37-.23-.86-.02-.93.42l-27.42,158.4L42.75-46.67c-.15-.61-1-.63-1.18-.03M31.33-7.61c.15-.16.22-.4.15-.61l-5.6-19.05c-.13-.45-.7-.59-1.02-.26L-20.92,18.25v84.15l50.19,50.19c.32.32.86.2,1.02-.22l6.49-18.15c.08-.22.02-.47-.15-.64L-2.27,94.68V25.98L31.33-7.61ZM135.43-27.27l-5.6,19.05c-.06.21,0,.45.16.61l33.59,33.6v68.69l-38.9,38.91c-.17.17-.22.42-.15.64l6.49,18.15c.15.42.7.54,1.02.22l50.19-50.19V18.25l-45.78-45.79c-.33-.33-.89-.18-1.02.26"/>
    <path class="cls-2" d="M115.4,644.54H46.19c-.26,0-.5.17-.58.43l-5.82,18.02c-.13.4.17.81.58.81h80.75c.42,0,.71-.4.58-.81l-5.72-18.02c-.08-.26-.32-.43-.58-.43M76.64,550.12l.89-5.82,16.86-110.12c.07-.45-.34-.81-.77-.68l-42.29,11.89c-.31.08-.5.41-.42.73l23.19,98.31,1.34,5.74c.15.65,1.11.61,1.2-.06M41.56,453.39l-4.49,14.82c-.03.1-.03.22,0,.33l28.86,113.52-16.91,52.33c-.13.4.17.8.58.8h62.43c.42,0,.71-.4.58-.79l-17.21-54.19,34.78-129.03c.07-.25-.03-.53-.26-.68l-24.2-15.46c-.37-.23-.86-.02-.93.42l-27.42,158.4-34.63-140.43c-.15-.61-1-.63-1.18-.03M31.33,492.49c.15-.16.22-.4.15-.61l-5.6-19.05c-.13-.45-.7-.59-1.02-.26l-45.78,45.79v84.15l50.19,50.19c.32.32.86.2,1.02-.22l6.49-18.15c.08-.22.02-.47-.15-.64l-38.9-38.91v-68.69l33.6-33.6ZM135.43,472.83l-5.6,19.05c-.06.21,0,.45.16.61l33.59,33.6v68.69l-38.9,38.91c-.17.17-.22.42-.15.64l6.49,18.15c.15.42.7.54,1.02.22l50.19-50.19v-84.15l-45.78-45.79c-.33-.33-.89-.18-1.02.26"/>
    <path class="cls-2" d="M246.58,394.48h-69.21c-.26,0-.5.17-.58.43l-5.82,18.02c-.13.4.17.81.58.81h80.75c.42,0,.71-.4.58-.81l-5.72-18.02c-.08-.26-.32-.43-.58-.43M207.83,300.07l.89-5.82,16.86-110.12c.07-.45-.34-.81-.77-.68l-42.29,11.89c-.31.08-.5.41-.42.73l23.19,98.31,1.34,5.74c.15.65,1.11.61,1.2-.06M172.75,203.34l-4.49,14.82c-.03.1-.03.22,0,.33l28.86,113.52-16.91,52.33c-.13.4.17.8.58.8h62.43c.42,0,.71-.4.58-.79l-17.21-54.2,34.78-129.03c.07-.25-.03-.53-.26-.68l-24.2-15.46c-.37-.23-.86-.02-.93.42l-27.42,158.4-34.63-140.43c-.15-.61-1-.63-1.18-.03M162.51,242.44c.15-.16.22-.4.15-.61l-5.6-19.05c-.13-.45-.7-.59-1.02-.26l-45.78,45.79v84.15l50.19,50.19c.32.32.86.2,1.02-.22l6.49-18.16c.08-.22.02-.47-.15-.63l-38.9-38.91v-68.69l33.6-33.6ZM266.62,222.78l-5.6,19.05c-.06.21,0,.45.16.61l33.59,33.6v68.69l-38.9,38.91c-.17.17-.22.42-.15.63l6.49,18.16c.15.42.7.54,1.02.22l50.19-50.19v-84.15l-45.78-45.79c-.33-.33-.89-.18-1.02.26"/>
    <path class="cls-2" d="M-15.79,394.48h-69.21c-.26,0-.5.17-.58.43l-5.82,18.02c-.13.4.17.81.58.81H-10.07c.42,0,.71-.4.58-.81l-5.72-18.02c-.08-.26-.32-.43-.58-.43M-54.54,300.07l.89-5.82,16.86-110.12c.07-.45-.34-.81-.77-.68l-42.29,11.89c-.31.08-.5.41-.43.73l23.19,98.31,1.34,5.74c.15.65,1.11.61,1.2-.06M-89.62,203.34l-4.49,14.82c-.03.1-.03.22,0,.33l28.86,113.52-16.91,52.33c-.13.4.17.8.58.8H-19.15c.42,0,.71-.4.58-.79l-17.21-54.2L-.99,201.13c.07-.25-.03-.53-.26-.68l-24.2-15.46c-.37-.23-.86-.02-.93.42l-27.42,158.4-34.63-140.43c-.15-.61-1-.63-1.18-.03M-99.86,242.44c.15-.16.22-.4.15-.61l-5.6-19.05c-.13-.45-.7-.59-1.02-.26l-45.78,45.79v84.15l50.19,50.19c.32.32.86.2,1.01-.22l6.5-18.16c.08-.22.02-.47-.15-.63l-38.9-38.91v-68.69l33.6-33.6ZM4.25,222.78l-5.6,19.05c-.06.21,0,.45.16.61l33.59,33.6v68.69l-38.9,38.91c-.17.17-.22.42-.15.63L-.16,402.43c.15.42.7.54,1.02.22l50.19-50.19v-84.15L5.27,222.52c-.33-.33-.89-.18-1.02.26"/>
    <path class="cls-2" d="M115.4,144.44H46.19c-.26,0-.5.17-.58.42l-5.82,18.02c-.13.4.17.81.58.81h80.75c.42,0,.71-.4.58-.81l-5.72-18.02c-.08-.26-.32-.42-.58-.42M76.64,50.02l.89-5.82,16.86-110.12c.07-.45-.34-.81-.77-.68l-42.29,11.89c-.31.08-.5.41-.42.73l23.19,98.31,1.34,5.74c.15.65,1.11.61,1.2-.06M41.56-46.71l-4.49,14.82c-.03.1-.03.22,0,.33l28.86,113.52-16.91,52.33c-.13.4.17.8.58.8h62.43c.42,0,.71-.4.58-.79l-17.21-54.19,34.78-129.03c.07-.25-.03-.53-.26-.68l-24.2-15.46c-.37-.23-.86-.02-.93.42l-27.42,158.4L42.75-46.67c-.15-.61-1-.63-1.18-.03M31.33-7.61c.15-.16.22-.4.15-.61l-5.6-19.05c-.13-.45-.7-.59-1.02-.26L-20.92,18.25v84.15l50.19,50.19c.32.32.86.2,1.02-.22l6.49-18.15c.08-.22.02-.47-.15-.64L-2.27,94.68V25.98L31.33-7.61ZM135.43-27.27l-5.6,19.05c-.06.21,0,.45.16.61l33.59,33.6v68.69l-38.9,38.91c-.17.17-.22.42-.15.64l6.49,18.15c.15.42.7.54,1.02.22l50.19-50.19V18.25l-45.78-45.79c-.33-.33-.89-.18-1.02.26"/>
    <path class="cls-2" d="M115.4,1144.64H46.19c-.26,0-.5.17-.58.43l-5.82,18.02c-.13.4.17.81.58.81h80.75c.42,0,.71-.4.58-.81l-5.72-18.02c-.08-.26-.32-.43-.58-.43M76.64,1050.23l.89-5.82,16.86-110.12c.07-.45-.34-.81-.77-.68l-42.29,11.89c-.31.08-.5.41-.42.73l23.19,98.31,1.34,5.74c.15.65,1.11.61,1.2-.06M41.56,953.5l-4.49,14.82c-.03.1-.03.22,0,.33l28.86,113.52-16.91,52.33c-.13.4.17.8.58.8h62.43c.42,0,.71-.4.58-.79l-17.21-54.2,34.78-129.03c.07-.25-.03-.53-.26-.68l-24.2-15.46c-.37-.23-.86-.02-.93.42l-27.42,158.39-34.63-140.43c-.15-.61-1-.63-1.18-.03M31.33,992.59c.15-.16.22-.4.15-.61l-5.6-19.05c-.13-.45-.7-.59-1.02-.26l-45.78,45.79v84.15l50.19,50.19c.32.32.86.2,1.02-.22l6.49-18.15c.08-.22.02-.47-.15-.64l-38.9-38.91v-68.69l33.6-33.6ZM135.43,972.94l-5.6,19.05c-.06.21,0,.45.16.61l33.59,33.6v68.69l-38.9,38.91c-.17.17-.22.42-.15.64l6.49,18.15c.15.42.7.54,1.02.22l50.19-50.19v-84.15l-45.78-45.79c-.33-.33-.89-.18-1.02.26"/>
    <path class="cls-2" d="M246.58,894.59h-69.21c-.26,0-.5.17-.58.43l-5.82,18.02c-.13.4.17.81.58.81h80.75c.42,0,.71-.4.58-.81l-5.72-18.02c-.08-.26-.32-.43-.58-.43M207.83,800.17l.89-5.82,16.86-110.12c.07-.45-.34-.81-.77-.68l-42.29,11.89c-.31.08-.5.41-.42.73l23.19,98.31,1.34,5.74c.15.65,1.11.61,1.2-.06M172.75,703.45l-4.49,14.82c-.03.1-.03.22,0,.33l28.86,113.52-16.91,52.33c-.13.4.17.8.58.8h62.43c.42,0,.71-.4.58-.79l-17.21-54.2,34.78-129.03c.07-.25-.03-.53-.26-.68l-24.2-15.46c-.37-.23-.86-.02-.93.42l-27.42,158.4-34.63-140.43c-.15-.61-1-.63-1.18-.03M162.51,742.54c.15-.16.22-.4.15-.61l-5.6-19.05c-.13-.45-.7-.59-1.02-.26l-45.78,45.79v84.15l50.19,50.19c.32.32.86.2,1.02-.23l6.49-18.15c.08-.22.02-.47-.15-.63l-38.9-38.91v-68.69l33.6-33.6ZM266.62,722.89l-5.6,19.05c-.06.21,0,.45.16.61l33.59,33.6v68.69l-38.9,38.91c-.17.17-.22.42-.15.63l6.49,18.15c.15.43.7.55,1.02.23l50.19-50.19v-84.15l-45.78-45.79c-.33-.33-.89-.18-1.02.26"/>
    <path class="cls-2" d="M-15.79,894.59h-69.21c-.26,0-.5.17-.58.43l-5.82,18.02c-.13.4.17.81.58.81H-10.07c.42,0,.71-.4.58-.81l-5.72-18.02c-.08-.26-.32-.43-.58-.43M-54.54,800.17l.89-5.82,16.86-110.12c.07-.45-.34-.81-.77-.68l-42.29,11.89c-.31.08-.5.41-.43.73l23.19,98.31,1.34,5.74c.15.65,1.11.61,1.2-.06M-89.62,703.45l-4.49,14.82c-.03.1-.03.22,0,.33l28.86,113.52-16.91,52.33c-.13.4.17.8.58.8H-19.15c.42,0,.71-.4.58-.79l-17.21-54.2L-.99,701.23c.07-.25-.03-.53-.26-.68l-24.2-15.46c-.37-.23-.86-.02-.93.42l-27.42,158.4-34.63-140.43c-.15-.61-1-.63-1.18-.03M-99.86,742.54c.15-.16.22-.4.15-.61l-5.6-19.05c-.13-.45-.7-.59-1.02-.26l-45.78,45.79v84.15l50.19,50.19c.32.32.86.2,1.01-.23l6.5-18.15c.08-.22.02-.47-.15-.63l-38.9-38.91v-68.69l33.6-33.6ZM4.25,722.89l-5.6,19.05c-.06.21,0,.45.16.61l33.59,33.6v68.69l-38.9,38.91c-.17.17-.22.42-.15.63l6.49,18.15c.15.43.7.55,1.02.23l50.19-50.19v-84.15l-45.78-45.79c-.33-.33-.89-.18-1.02.26"/>
    <path class="cls-2" d="M115.4,644.54H46.19c-.26,0-.5.17-.58.43l-5.82,18.02c-.13.4.17.81.58.81h80.75c.42,0,.71-.4.58-.81l-5.72-18.02c-.08-.26-.32-.43-.58-.43M76.64,550.12l.89-5.82,16.86-110.12c.07-.45-.34-.81-.77-.68l-42.29,11.89c-.31.08-.5.41-.42.73l23.19,98.31,1.34,5.74c.15.65,1.11.61,1.2-.06M41.56,453.39l-4.49,14.82c-.03.1-.03.22,0,.33l28.86,113.52-16.91,52.33c-.13.4.17.8.58.8h62.43c.42,0,.71-.4.58-.79l-17.21-54.19,34.78-129.03c.07-.25-.03-.53-.26-.68l-24.2-15.46c-.37-.23-.86-.02-.93.42l-27.42,158.4-34.63-140.43c-.15-.61-1-.63-1.18-.03M31.33,492.49c.15-.16.22-.4.15-.61l-5.6-19.05c-.13-.45-.7-.59-1.02-.26l-45.78,45.79v84.15l50.19,50.19c.32.32.86.2,1.02-.22l6.49-18.15c.08-.22.02-.47-.15-.64l-38.9-38.91v-68.69l33.6-33.6ZM135.43,472.83l-5.6,19.05c-.06.21,0,.45.16.61l33.59,33.6v68.69l-38.9,38.91c-.17.17-.22.42-.15.64l6.49,18.15c.15.42.7.54,1.02.22l50.19-50.19v-84.15l-45.78-45.79c-.33-.33-.89-.18-1.02.26"/>
    <path class="cls-2" d="M115.4,1644.74H46.19c-.26,0-.5.17-.58.43l-5.82,18.02c-.13.4.17.81.58.81h80.75c.42,0,.71-.4.58-.81l-5.72-18.02c-.08-.26-.32-.43-.58-.43M76.64,1550.33l.89-5.82,16.86-110.12c.07-.45-.34-.81-.77-.68l-42.29,11.89c-.31.08-.5.41-.42.73l23.19,98.31,1.34,5.74c.15.65,1.11.61,1.2-.06M41.56,1453.6l-4.49,14.82c-.03.1-.03.22,0,.33l28.86,113.52-16.91,52.33c-.13.4.17.8.58.8h62.43c.42,0,.71-.4.58-.79l-17.21-54.2,34.78-129.03c.07-.25-.03-.53-.26-.68l-24.2-15.46c-.37-.23-.86-.02-.93.42l-27.42,158.39-34.63-140.43c-.15-.61-1-.63-1.18-.03M31.33,1492.7c.15-.16.22-.4.15-.61l-5.6-19.05c-.13-.45-.7-.59-1.02-.26l-45.78,45.79v84.15l50.19,50.19c.32.32.86.2,1.02-.22l6.49-18.15c.08-.22.02-.47-.15-.64l-38.9-38.91v-68.69l33.6-33.6ZM135.43,1473.04l-5.6,19.05c-.06.21,0,.45.16.61l33.59,33.6v68.69l-38.9,38.91c-.17.17-.22.42-.15.64l6.49,18.15c.15.42.7.54,1.02.22l50.19-50.19v-84.15l-45.78-45.79c-.33-.33-.89-.18-1.02.26"/>
    <path class="cls-2" d="M246.58,1394.69h-69.21c-.26,0-.5.17-.58.43l-5.82,18.02c-.13.4.17.81.58.81h80.75c.42,0,.71-.4.58-.81l-5.72-18.02c-.08-.26-.32-.43-.58-.43M207.83,1300.28l.89-5.82,16.86-110.12c.07-.45-.34-.81-.77-.68l-42.29,11.89c-.31.08-.5.41-.42.73l23.19,98.31,1.34,5.74c.15.65,1.11.61,1.2-.06M172.75,1203.55l-4.49,14.82c-.03.1-.03.22,0,.33l28.86,113.52-16.91,52.33c-.13.4.17.8.58.8h62.43c.42,0,.71-.4.58-.79l-17.21-54.2,34.78-129.03c.07-.25-.03-.53-.26-.68l-24.2-15.46c-.37-.23-.86-.02-.93.42l-27.42,158.39-34.63-140.43c-.15-.61-1-.63-1.18-.03M162.51,1242.65c.15-.16.22-.4.15-.61l-5.6-19.05c-.13-.45-.7-.59-1.02-.26l-45.78,45.79v84.15l50.19,50.19c.32.32.86.2,1.02-.22l6.49-18.15c.08-.22.02-.47-.15-.64l-38.9-38.91v-68.69l33.6-33.6ZM266.62,1222.99l-5.6,19.05c-.06.21,0,.45.16.61l33.59,33.6v68.69l-38.9,38.91c-.17.17-.22.42-.15.64l6.49,18.15c.15.42.7.54,1.02.22l50.19-50.19v-84.15l-45.78-45.79c-.33-.33-.89-.18-1.02.26"/>
    <path class="cls-2" d="M-15.79,1394.69h-69.21c-.26,0-.5.17-.58.43l-5.82,18.02c-.13.4.17.81.58.81H-10.07c.42,0,.71-.4.58-.81l-5.72-18.02c-.08-.26-.32-.43-.58-.43M-54.54,1300.28l.89-5.82,16.86-110.12c.07-.45-.34-.81-.77-.68l-42.29,11.89c-.31.08-.5.41-.43.73l23.19,98.31,1.34,5.74c.15.65,1.11.61,1.2-.06M-89.62,1203.55l-4.49,14.82c-.03.1-.03.22,0,.33l28.86,113.52-16.91,52.33c-.13.4.17.8.58.8H-19.15c.42,0,.71-.4.58-.79l-17.21-54.2L-.99,1201.34c.07-.25-.03-.53-.26-.68l-24.2-15.46c-.37-.23-.86-.02-.93.42l-27.42,158.39-34.63-140.43c-.15-.61-1-.63-1.18-.03M-99.86,1242.65c.15-.16.22-.4.15-.61l-5.6-19.05c-.13-.45-.7-.59-1.02-.26l-45.78,45.79v84.15l50.19,50.19c.32.32.86.2,1.01-.22l6.5-18.15c.08-.22.02-.47-.15-.64l-38.9-38.91v-68.69l33.6-33.6ZM4.25,1222.99l-5.6,19.05c-.06.21,0,.45.16.61l33.59,33.6v68.69l-38.9,38.91c-.17.17-.22.42-.15.64l6.49,18.15c.15.42.7.54,1.02.22l50.19-50.19v-84.15l-45.78-45.79c-.33-.33-.89-.18-1.02.26"/>
    <path class="cls-2" d="M115.4,1144.64H46.19c-.26,0-.5.17-.58.43l-5.82,18.02c-.13.4.17.81.58.81h80.75c.42,0,.71-.4.58-.81l-5.72-18.02c-.08-.26-.32-.43-.58-.43M76.64,1050.23l.89-5.82,16.86-110.12c.07-.45-.34-.81-.77-.68l-42.29,11.89c-.31.08-.5.41-.42.73l23.19,98.31,1.34,5.74c.15.65,1.11.61,1.2-.06M41.56,953.5l-4.49,14.82c-.03.1-.03.22,0,.33l28.86,113.52-16.91,52.33c-.13.4.17.8.58.8h62.43c.42,0,.71-.4.58-.79l-17.21-54.2,34.78-129.03c.07-.25-.03-.53-.26-.68l-24.2-15.46c-.37-.23-.86-.02-.93.42l-27.42,158.39-34.63-140.43c-.15-.61-1-.63-1.18-.03M31.33,992.59c.15-.16.22-.4.15-.61l-5.6-19.05c-.13-.45-.7-.59-1.02-.26l-45.78,45.79v84.15l50.19,50.19c.32.32.86.2,1.02-.22l6.49-18.15c.08-.22.02-.47-.15-.64l-38.9-38.91v-68.69l33.6-33.6ZM135.43,972.94l-5.6,19.05c-.06.21,0,.45.16.61l33.59,33.6v68.69l-38.9,38.91c-.17.17-.22.42-.15.64l6.49,18.15c.15.42.7.54,1.02.22l50.19-50.19v-84.15l-45.78-45.79c-.33-.33-.89-.18-1.02.26"/>
    <path class="cls-2" d="M115.4,2144.85H46.19c-.26,0-.5.17-.58.43l-5.82,18.02c-.13.4.17.81.58.81h80.75c.42,0,.71-.4.58-.81l-5.72-18.02c-.08-.26-.32-.43-.58-.43M76.64,2050.43l.89-5.82,16.86-110.12c.07-.45-.34-.81-.77-.68l-42.29,11.89c-.31.08-.5.41-.42.73l23.19,98.31,1.34,5.74c.15.65,1.11.61,1.2-.06M41.56,1953.71l-4.49,14.82c-.03.1-.03.22,0,.33l28.86,113.52-16.91,52.33c-.13.4.17.8.58.8h62.43c.42,0,.71-.4.58-.79l-17.21-54.2,34.78-129.03c.07-.25-.03-.53-.26-.68l-24.2-15.46c-.37-.23-.86-.02-.93.42l-27.42,158.39-34.63-140.43c-.15-.61-1-.63-1.18-.03M31.33,1992.8c.15-.16.22-.4.15-.61l-5.6-19.05c-.13-.45-.7-.59-1.02-.26l-45.78,45.79v84.15l50.19,50.19c.32.32.86.2,1.02-.22l6.49-18.15c.08-.22.02-.47-.15-.64l-38.9-38.91v-68.69l33.6-33.6ZM135.43,1973.15l-5.6,19.05c-.06.21,0,.45.16.61l33.59,33.6v68.69l-38.9,38.91c-.17.17-.22.42-.15.64l6.49,18.15c.15.42.7.54,1.02.22l50.19-50.19v-84.15l-45.78-45.79c-.33-.33-.89-.18-1.02.26"/>
    <path class="cls-2" d="M246.58,1894.8h-69.21c-.26,0-.5.17-.58.43l-5.82,18.02c-.13.4.17.81.58.81h80.75c.42,0,.71-.4.58-.81l-5.72-18.02c-.08-.26-.32-.43-.58-.43M207.83,1800.38l.89-5.82,16.86-110.12c.07-.45-.34-.81-.77-.68l-42.29,11.89c-.31.08-.5.41-.42.73l23.19,98.31,1.34,5.74c.15.65,1.11.61,1.2-.06M172.75,1703.66l-4.49,14.82c-.03.1-.03.22,0,.33l28.86,113.52-16.91,52.33c-.13.4.17.8.58.8h62.43c.42,0,.71-.4.58-.79l-17.21-54.2,34.78-129.03c.07-.25-.03-.53-.26-.68l-24.2-15.46c-.37-.23-.86-.02-.93.42l-27.42,158.39-34.63-140.43c-.15-.61-1-.63-1.18-.03M162.51,1742.75c.15-.16.22-.4.15-.61l-5.6-19.05c-.13-.45-.7-.59-1.02-.26l-45.78,45.79v84.15l50.19,50.19c.32.32.86.2,1.02-.22l6.49-18.15c.08-.22.02-.47-.15-.64l-38.9-38.91v-68.69l33.6-33.6ZM266.62,1723.1l-5.6,19.05c-.06.21,0,.45.16.61l33.59,33.6v68.69l-38.9,38.91c-.17.17-.22.42-.15.64l6.49,18.15c.15.42.7.54,1.02.22l50.19-50.19v-84.15l-45.78-45.79c-.33-.33-.89-.18-1.02.26"/>
    <path class="cls-2" d="M-15.79,1894.8h-69.21c-.26,0-.5.17-.58.43l-5.82,18.02c-.13.4.17.81.58.81H-10.07c.42,0,.71-.4.58-.81l-5.72-18.02c-.08-.26-.32-.43-.58-.43M-54.54,1800.38l.89-5.82,16.86-110.12c.07-.45-.34-.81-.77-.68l-42.29,11.89c-.31.08-.5.41-.43.73l23.19,98.31,1.34,5.74c.15.65,1.11.61,1.2-.06M-89.62,1703.66l-4.49,14.82c-.03.1-.03.22,0,.33l28.86,113.52-16.91,52.33c-.13.4.17.8.58.8H-19.15c.42,0,.71-.4.58-.79l-17.21-54.2L-.99,1701.44c.07-.25-.03-.53-.26-.68l-24.2-15.46c-.37-.23-.86-.02-.93.42l-27.42,158.39-34.63-140.43c-.15-.61-1-.63-1.18-.03M-99.86,1742.75c.15-.16.22-.4.15-.61l-5.6-19.05c-.13-.45-.7-.59-1.02-.26l-45.78,45.79v84.15l50.19,50.19c.32.32.86.2,1.01-.22l6.5-18.15c.08-.22.02-.47-.15-.64l-38.9-38.91v-68.69l33.6-33.6ZM4.25,1723.1l-5.6,19.05c-.06.21,0,.45.16.61l33.59,33.6v68.69l-38.9,38.91c-.17.17-.22.42-.15.64l6.49,18.15c.15.42.7.54,1.02.22l50.19-50.19v-84.15l-45.78-45.79c-.33-.33-.89-.18-1.02.26"/>
    <path class="cls-2" d="M115.4,1644.74H46.19c-.26,0-.5.17-.58.43l-5.82,18.02c-.13.4.17.81.58.81h80.75c.42,0,.71-.4.58-.81l-5.72-18.02c-.08-.26-.32-.43-.58-.43M76.64,1550.33l.89-5.82,16.86-110.12c.07-.45-.34-.81-.77-.68l-42.29,11.89c-.31.08-.5.41-.42.73l23.19,98.31,1.34,5.74c.15.65,1.11.61,1.2-.06M41.56,1453.6l-4.49,14.82c-.03.1-.03.22,0,.33l28.86,113.52-16.91,52.33c-.13.4.17.8.58.8h62.43c.42,0,.71-.4.58-.79l-17.21-54.2,34.78-129.03c.07-.25-.03-.53-.26-.68l-24.2-15.46c-.37-.23-.86-.02-.93.42l-27.42,158.39-34.63-140.43c-.15-.61-1-.63-1.18-.03M31.33,1492.7c.15-.16.22-.4.15-.61l-5.6-19.05c-.13-.45-.7-.59-1.02-.26l-45.78,45.79v84.15l50.19,50.19c.32.32.86.2,1.02-.22l6.49-18.15c.08-.22.02-.47-.15-.64l-38.9-38.91v-68.69l33.6-33.6ZM135.43,1473.04l-5.6,19.05c-.06.21,0,.45.16.61l33.59,33.6v68.69l-38.9,38.91c-.17.17-.22.42-.15.64l6.49,18.15c.15.42.7.54,1.02.22l50.19-50.19v-84.15l-45.78-45.79c-.33-.33-.89-.18-1.02.26"/>
    <path class="cls-2" d="M115.4,2144.85H46.19c-.26,0-.5.17-.58.43l-5.82,18.02c-.13.4.17.81.58.81h80.75c.42,0,.71-.4.58-.81l-5.72-18.02c-.08-.26-.32-.43-.58-.43M76.64,2050.43l.89-5.82,16.86-110.12c.07-.45-.34-.81-.77-.68l-42.29,11.89c-.31.08-.5.41-.42.73l23.19,98.31,1.34,5.74c.15.65,1.11.61,1.2-.06M41.56,1953.71l-4.49,14.82c-.03.1-.03.22,0,.33l28.86,113.52-16.91,52.33c-.13.4.17.8.58.8h62.43c.42,0,.71-.4.58-.79l-17.21-54.2,34.78-129.03c.07-.25-.03-.53-.26-.68l-24.2-15.46c-.37-.23-.86-.02-.93.42l-27.42,158.39-34.63-140.43c-.15-.61-1-.63-1.18-.03M31.33,1992.8c.15-.16.22-.4.15-.61l-5.6-19.05c-.13-.45-.7-.59-1.02-.26l-45.78,45.79v84.15l50.19,50.19c.32.32.86.2,1.02-.22l6.49-18.15c.08-.22.02-.47-.15-.64l-38.9-38.91v-68.69l33.6-33.6ZM135.43,1973.15l-5.6,19.05c-.06.21,0,.45.16.61l33.59,33.6v68.69l-38.9,38.91c-.17.17-.22.42-.15.64l6.49,18.15c.15.42.7.54,1.02.22l50.19-50.19v-84.15l-45.78-45.79c-.33-.33-.89-.18-1.02.26"/>
  </g>
  <g>
    <path class="cls-4" d="M1545.71,1051.97c-18.95-73.07-53.68-145.42-104.45-218.75,2.46-27.53-3.01-51.81-32.73-88.2-1.99-4.77-3.93-9.37-5.81-13.8-10.33-24.43-18.55-44.04-23.72-67.03,1.32-15.09,3.74-28.8,6.53-36.92.03-.09.02-.18-.03-.26-24.68-39.92-73.05-73.81-135.34-96.81-.22-.08-.36-.3-.33-.53,10.36-81.04,31.86-160.9,58.21-223.75.17-.41-.23-.83-.64-.65-32.73,14.4-73.76,40.82-110.08,74.54-.32.3-.84.1-.88-.34-3.45-46.64-7.94-92.75-11.39-127-.04-.36-.47-.51-.73-.25-11.67,11.5-127.05,134.67-134.67,142.81-.22.23-.56.16-.73-.12l-90.92-144.65c-.25-.39-.83-.33-.99.11l-57.93,161.07c-.13.35-.55.49-.86.28-9.26-6.45-121.23-84.36-158.72-108.3-.3-.19-.65.07-.63.42,3.47,48.11,9.45,93.24,13.45,126.69.05.37-.32.63-.64.44-23.1-13.67-85.71-39.48-123.8-41.63-.43-.02-.69.46-.44.81,34.99,49.07,86.35,129.17,104.57,203.33.05.22-.04.45-.24.57-105.79,64.33-187.67,138.79-280.79,305.2-.17.3,0,.68.33.7,13.02.88,38.44,2.51,61.37,4.89.35.04.52.42.31.7-45.27,58.46-110.69,203.54-101.99,317.9.03.33.27.53.59.42,16.91-5.61,71.04-22.5,101.41-32.66.22-.07.41.11.35.34-24.15,100.91-8.12,305.95,68.1,384.74.09.09.23.12.35.07,41.94-19.5,118.9-93.97,163.45-157.3.28-.4.9-.2.93.29,6.5,123.64-32.82,240.49-41.01,256.25-.16.32-.04.66.26.86,245.88,159.07,494.75,3.79,502.7-1.25.11-.07.22-.03.24.1.84,3.87,12.25,56.27,17.33,74.47.05.18.22.27.4.23,69.19-17.41,214.19-108.97,267.15-315.88.06-.24.34-.33.5-.15,12.09,13.8,35.35,39.58,46.15,54.95.27.39.85.28,1.03-.17,74.86-192.09,53.13-332.18,4.76-436.77Z"/>
    <path class="cls-3" d="M687,428.95c60.55,27.72,99.41,62.79,106.48,68.09-3.24-15.66-15.14-90.92-22.01-137.71,35.29,24.52,117.2,81.35,144.11,99.83,10.97-33.84,49.02-144.37,49.02-144.37,0,0,68.69,111.3,80.44,129.39,14.36-15.03,96.53-106.41,117.76-129.56,3.6,52.58,8.46,127.84,9.61,139.13,4.22-5.6,35.65-49.69,88.39-90.35-22.87,45-33.74,107.15-38.64,157.09-51.86-14.5-106.53-22.28-163.01-22.28-108.35,0-210.01,28.55-297.93,78.5-15.99-48.16-41-108.14-74.21-147.77ZM1516.12,1378l-47.71-52.87c-13.65,142.85-83.54,264.09-212.02,348.64l-19.56-77.06c-109.04,78.84-296.21,129.89-456.96,39.02,19.93-101.86,37.64-205.02-.38-328.62-89,137.84-167.84,191.84-167.84,191.84-60.09-100.94-54.69-303.6-36.77-363.24l-100.1,31.02c0-68.06,49.06-212.56,120.01-293.64l-62.55-9.98h-.02c42.47-86.86,105.8-161.69,183.46-217.93l.07-.04c-23.29,36.86-23.63,127.61,44.68,162.2-29.01-50.83-32.49-113.62-2.27-146.19,30.36-32.72,81.27-21.5,113.78,3.97-9.66-28.35-38.03-64.04-80.52-66.47h-.03c80.26-41.28,171.29-64.58,267.76-64.58,18.02,0,35.84.81,53.44,2.4l.02.02c28.03,11.27,69.2,50.76,88.4,75.34,0,0,1.35-28.99-14.76-63.93,104.42,25.36,154.14,67.84,175.03,88.43,4.27,45.04,17.78,72.15,35.66,115.07-33.82-37.91-118.81-99.01-159.34-113.65,0,0-3.35,39.11-17.28,57.93-80.76-58.32-120.45-72.93-120.45-72.93-88.71,12.65-145.72,46.88-176.68,73.76l26.98,22.98c-53.46,16.46-88.17,62.42-88.17,62.42.35.79,47.74,7.56,47.74,7.56,0,0-4.85,55.67,64.86,90.57,59.64,29.86,145.51-7.18,226.33,25.24-53.17-61.35-89.81-88.78-89.81-88.78,0,0-21.16-4.4-36.03-4.3-18.56.12-46.18,3.81-76.59-8.02-14.47-5.63-31.37-15.65-44.63-23.97,0,0,37.29-38.31,91.78-46.79,0,0,49.15,13.82,88.09,42.66,25.9-25.21,52.92-24.44,52.92-24.44,0,0-26.74,25.04-18.66,55.29,38.96,34.7,81.13,84.36,81.13,84.36,42.98-23.59,136.43-18.17,155.63,4.1-24.32-31.48-59.39-57.85-86.52-80.38-3.3-11.81-32.9-53.06-37.88-56.83,0,0,28.16,8.7,53.24,31.23,7.27-10.27,20.73-20.77,39.16-25.38,18.94,15.87,22.27,40.22,21.76,44.32-8.57,10.13-16.89,14.33-16.89,14.33l45.49,49.28,4.56-35.33c104.86,149.73,162.07,323.22,88.47,541.41ZM1318.32,1055.29l-.1-77.4s-34.56-11.13-71.53-39.78c-74.17,11.22-164.03,85.86-164.03,85.86,0,0,30.4,57.59,63.55,119.7,58.41,8.04,144.37-65.56,172.11-88.37ZM1392.94,1195.73s-5.95-32.02-31.33-61.96l-57.85,1.44s-78.07,67.09-125.69,68.64c0,0,26.24,48.83,39.42,74.3,26.26-5.69,72.33-26.42,90.9-47.98,0,0,12.27,39.59,9.92,86.28,26.06-15.21,62.05-56.1,74.62-120.72ZM1416.71,941.22c-29.18,24.57-53.95,38.2-53.95,38.2l.25,77.77c20.92,23.27,41.55,42.59,56.96,77.74,29.23-52.58,23.69-130.07-3.26-193.71Z"/>
  </g>
</svg>